<svg width="20" height="20" viewBox="0 0 20 20" fill="none" xmlns="http://www.w3.org/2000/svg">
<path d="M13.4277 16.8536C13.623 17.0488 13.9395 17.0488 14.1348 16.8536L18.1348 12.8536C18.3301 12.6583 18.3301 12.3417 18.1348 12.1464L14.1348 8.14645C13.9395 7.95118 13.623 7.95118 13.4277 8.14645C13.2324 8.34171 13.2324 8.65829 13.4277 8.85355L16.5741 12L4.71882 12C3.61425 12 2.71882 11.1046 2.71882 10L2.71882 3.5C2.71882 3.22386 2.49496 3 2.21882 3C1.94268 3 1.71882 3.22386 1.71882 3.5L1.71882 10C1.71882 11.6569 3.06197 13 4.71882 13L16.5741 13L13.4277 16.1464C13.2324 16.3417 13.2324 16.6583 13.4277 16.8536Z" fill="#EEEEEE"/>
</svg>
