<svg width="24" height="24" viewBox="0 0 24 24" fill="none" xmlns="http://www.w3.org/2000/svg">
<path fill-rule="evenodd" clip-rule="evenodd" d="M21 20.25C21 20.4489 20.921 20.6396 20.7803 20.7803C20.6396 20.921 20.4489 21 20.25 21H11.25C11.0511 21 10.8603 20.921 10.7196 20.7803C10.579 20.6396 10.5 20.4489 10.5 20.25C10.5 20.0511 10.579 19.8603 10.7196 19.7196C10.8603 19.579 11.0511 19.5 11.25 19.5H18.4395L3.21897 4.28097C3.14924 4.21124 3.09392 4.12845 3.05619 4.03735C3.01845 3.94624 2.99902 3.84859 2.99902 3.74997C2.99902 3.65135 3.01845 3.5537 3.05619 3.4626C3.09392 3.37149 3.14924 3.2887 3.21897 3.21897C3.2887 3.14924 3.37149 3.09392 3.4626 3.05619C3.5537 3.01845 3.65135 2.99902 3.74997 2.99902C3.84859 2.99902 3.94624 3.01845 4.03735 3.05619C4.12845 3.09392 4.21124 3.14924 4.28097 3.21897L19.5 18.4395V11.25C19.5 11.0511 19.579 10.8603 19.7196 10.7196C19.8603 10.579 20.0511 10.5 20.25 10.5C20.4489 10.5 20.6396 10.579 20.7803 10.7196C20.921 10.8603 21 11.0511 21 11.25V20.25Z" fill="white"/>
</svg>
