<svg width="17" height="17" viewBox="0 0 17 17" fill="none" xmlns="http://www.w3.org/2000/svg">
<path d="M2 2.88444C3.52344 1.11806 5.77787 0 8.29349 0C12.8817 0 16.6012 3.7195 16.6012 8.30769C16.6012 10.8233 15.4831 13.0778 13.7167 14.6012L2 2.88444Z" fill="white"/>
<path d="M0.662109 5.02508L11.5787 15.9416C11.9757 15.7706 12.3568 15.5696 12.719 15.3414L1.26236 3.88477C1.03411 4.24695 0.83311 4.62802 0.662109 5.02508Z" fill="white"/>
<path d="M0 7.84523L8.75756 16.6028C9.27706 16.5742 9.78387 16.498 10.2737 16.3783L0.224438 6.3291C0.10475 6.81891 0.0285625 7.32573 0 7.84523Z" fill="white"/>
<path d="M6.91581 16.5013L0.101562 9.68701C0.683625 13.1701 3.43275 15.9192 6.91581 16.5013Z" fill="white"/>
</svg>
