<svg width="111" height="111" viewBox="0 0 111 111" fill="none" xmlns="http://www.w3.org/2000/svg">
<path d="M-2.60036e-06 50.9443C0.12362 49.3288 0.317468 47.7328 0.577146 46.1592L91.791 46.1592L103.074 37.6143L2.70215 37.6143C10.0506 15.7498 30.7131 0.000169816 55.0537 -2.40647e-06C85.5488 0.000260149 110.271 24.7216 110.271 55.2168C110.27 85.7119 85.5488 110.433 55.0537 110.434C36.0201 110.433 19.2354 100.803 9.30762 86.1484L30.0557 86.1484L41.3389 77.6035L4.56445 77.6035C3.87243 76.0451 3.2501 74.4488 2.70215 72.8184L58.1289 72.8184L69.4131 64.2744L0.577146 64.2744C0.31746 62.7008 0.12363 61.1048 -2.22685e-06 59.4893L50.126 59.4893L58.7666 50.9443L-2.60036e-06 50.9443Z" fill="#828B98"/>
</svg>
