<svg width="111" height="111" viewBox="0 0 111 111" fill="none" xmlns="http://www.w3.org/2000/svg">
<path d="M-2.60036e-06 50.9443C0.12362 49.3288 0.317468 47.7328 0.577146 46.1592L91.1191 46.1592C91.5551 46.1592 91.9796 46.0171 92.3271 45.7539L98.3281 41.209C99.8565 40.0515 99.0382 37.6145 97.1211 37.6143L2.70215 37.6143C10.0506 15.7498 30.7131 0.000169167 55.0537 -2.40647e-06C85.5488 0.000260149 110.271 24.7216 110.271 55.2168C110.27 85.7119 85.5488 110.433 55.0537 110.434C36.0201 110.433 19.2354 100.803 9.30762 86.1484L29.3838 86.1484C29.8197 86.1484 30.2443 86.0063 30.5918 85.7432L36.5928 81.1982C38.1212 80.0408 37.3028 77.6038 35.3857 77.6035L4.56445 77.6035C3.87243 76.0451 3.2501 74.4488 2.70215 72.8184L57.458 72.8184C57.8938 72.8183 58.3176 72.6762 58.665 72.4131L64.666 67.8691C66.1944 66.7117 65.3761 64.2746 63.459 64.2744L0.577146 64.2744C0.31746 62.7008 0.12363 61.1048 -2.22685e-06 59.4893L49.3037 59.4893C49.8301 59.4893 50.3356 59.2812 50.71 58.9111L55.3066 54.3662C56.5769 53.1096 55.6872 50.9446 53.9004 50.9443L-2.60036e-06 50.9443Z" fill="#BF7535"/>
</svg>
